<?xml version="1.0" encoding="utf-8"?>
<!-- Generator: Adobe Illustrator 25.4.1, SVG Export Plug-In . SVG Version: 6.00 Build 0)  -->
<svg version="1.1" id="Layer_1" xmlns="http://www.w3.org/2000/svg" xmlns:xlink="http://www.w3.org/1999/xlink" x="0px" y="0px"
	 viewBox="0 0 2500 564.5" style="enable-background:new 0 0 2500 564.5;" xml:space="preserve">
<style type="text/css">
	.st0{fill:#FFFFFF;}
</style>
<g>
	<path d="M166.75,183.69c-19.78,0-38.02,4.87-54.23,14.48c-16.17,9.59-29.23,22.65-38.82,38.82c-9.61,16.21-14.48,34.45-14.48,54.23
		c0,19.95,4.87,38.29,14.48,54.5c9.59,16.18,22.65,29.24,38.82,38.83c16.21,9.6,34.45,14.48,54.23,14.48
		c19.76,0,38.01-4.87,54.22-14.48c16.17-9.59,29.24-22.66,38.82-38.83c9.61-16.21,14.48-34.54,14.48-54.5
		c0-19.77-4.87-38.01-14.48-54.23c-9.59-16.17-22.65-29.24-38.82-38.82C204.76,188.56,186.51,183.69,166.75,183.69 M12.66,552.38
		V290.93c0.36-28.38,7.51-54.44,21.25-77.42c13.75-23.02,32.49-41.71,55.7-55.56c23.16-13.82,49.11-20.83,77.14-20.83
		c28.03,0,54.03,7.01,77.29,20.83c23.29,13.85,42.12,32.68,55.97,55.97c13.82,23.25,20.83,49.26,20.83,77.29
		c0,28.22-7.01,54.26-20.83,77.42c-13.85,23.2-32.68,41.99-55.97,55.84c-23.25,13.82-49.25,20.83-77.29,20.83
		c-19.43,0-38-3.44-55.2-10.21c-17.23-6.78-32.84-16.34-46.4-28.44l-5.92-5.29v151.01H12.66z"/>
	<path d="M606.62,183.69c-19.77,0-38.01,4.87-54.22,14.48c-16.17,9.59-29.23,22.65-38.82,38.82c-9.61,16.21-14.48,34.45-14.48,54.23
		c0,19.95,4.87,38.29,14.48,54.5c9.59,16.18,22.65,29.24,38.82,38.83c16.21,9.6,34.45,14.48,54.22,14.48s38.01-4.87,54.23-14.48
		c16.17-9.59,29.24-22.66,38.82-38.83c9.61-16.21,14.48-34.54,14.48-54.5c0-19.77-4.87-38.01-14.48-54.23
		c-9.59-16.17-22.65-29.24-38.82-38.82C644.63,188.56,626.4,183.69,606.62,183.69 M714.15,445.3v-43.94l-5.93,5.29
		c-13.56,12.1-29.18,21.66-46.4,28.44c-17.2,6.77-35.78,10.21-55.2,10.21c-28.23,0-54.28-7.01-77.42-20.83
		c-23.21-13.84-41.99-32.63-55.84-55.84c-13.82-23.15-20.82-49.2-20.82-77.42c0-28.04,7.01-54.04,20.83-77.29
		c13.85-23.3,32.63-42.13,55.84-55.97c23.16-13.82,49.21-20.83,77.42-20.83c28.03,0,54.03,7.01,77.29,20.83
		c23.29,13.85,42.03,32.59,55.68,55.68c13.64,23.08,20.75,49.2,21.12,77.63V445.3H714.15z"/>
	<path d="M1015.99,445.87c-11.8,0-26.03-1.5-42.3-4.46c-15.93-2.89-30.53-9.41-43.38-19.37c-18.75-15.27-31.29-37.77-37.26-66.85
		l44.89-7.07c1.34,6.75,3.64,13.75,6.86,20.86c3.84,8.46,9.45,16.42,16.69,23.65c6.51,6.11,14.67,10.48,24.34,13.07
		c9.38,2.52,20.19,3.79,32.14,3.79c23.93,0,42-5.04,53.72-14.97c11.89-10.08,17.93-22.02,17.93-35.49c0-12.52-5.48-22.46-16.3-29.54
		c-7.16-4.77-24.43-10.57-52.78-17.7l-0.17-0.04c-1.76-0.35-3.55-0.8-5.32-1.33l-0.18-0.05c-11.38-2.8-23.4-6.06-35.72-9.7
		c-12.24-3.62-24.37-7.99-36.05-12.99c-12.59-5.85-22.78-14.73-30.18-26.33c-7.41-11.61-11.46-25.14-12.02-40.19
		c0.38-12.58,3.39-24.85,8.97-36.45c5.55-11.56,13.74-21.44,24.34-29.34c10.39-7.34,22.01-12.37,34.46-14.91
		c10.47-2.2,21.45-3.31,32.63-3.31c2.5,0,4.97,0.09,7.36,0.27l0.2,0.01l7.83-0.29c7.6,0.01,15.98,0.47,24.78,1.4
		c8.6,0.91,17.94,3.3,27.75,7.12c17.84,7.39,30.91,16.95,38.76,28.37c4.32,6.13,7.83,13.14,10.44,20.87
		c2.27,6.76,4.27,13.72,5.95,20.73l-44.34,6.09c-3.15-12.36-9.75-23.82-19.67-34.1c-5.44-5.23-12.35-8.85-20.65-10.88
		c-7.97-1.94-17.19-2.92-27.4-2.92c-24.2,0-41.08,3.94-51.61,12.04l-0.14,0.12c-9.83,8.4-14.81,17.77-14.81,27.85
		c0,1.23,0.18,3.88,1.75,12.63c1.35,7.55,9.27,14.9,24.21,22.47l0.17,0.08l0.18,0.07c15.52,5.87,32.97,11.05,51.88,15.4
		c20.29,4.66,39.91,10.55,58.3,17.51c17.91,6.79,32.2,16.79,42.48,29.74c7.78,11.19,11.73,25.3,11.73,41.95
		c-0.18,5.4-1.65,12.85-4.37,22.02c-2.72,9.18-6.22,17.42-10.39,24.49c-3.55,6.05-8.96,12.21-16.07,18.32
		c-7.12,6.13-15.6,11.26-25.17,15.23c-8.08,3.49-17.69,6.41-28.61,8.71c-10.9,2.29-22.2,3.45-33.59,3.45H1015.99z"/>
	<path d="M1391.75,445.87c-11.8,0-26.03-1.5-42.3-4.46c-15.93-2.89-30.53-9.41-43.38-19.37c-18.75-15.27-31.29-37.77-37.26-66.85
		l44.89-7.07c1.34,6.75,3.64,13.75,6.86,20.86c3.84,8.46,9.45,16.42,16.69,23.65c6.51,6.11,14.67,10.48,24.34,13.07
		c9.38,2.52,20.19,3.79,32.14,3.79c23.93,0,42-5.04,53.72-14.97c11.89-10.08,17.93-22.02,17.93-35.49c0-12.52-5.48-22.46-16.3-29.54
		c-7.16-4.77-24.43-10.57-52.78-17.7l-0.17-0.04c-1.76-0.35-3.55-0.8-5.32-1.33l-0.18-0.05c-11.38-2.8-23.4-6.06-35.72-9.7
		c-12.24-3.62-24.37-7.99-36.05-12.99c-12.59-5.85-22.78-14.73-30.18-26.33c-7.41-11.61-11.46-25.14-12.02-40.19
		c0.38-12.58,3.39-24.85,8.97-36.45c5.55-11.56,13.74-21.44,24.34-29.34c10.39-7.34,22.01-12.37,34.46-14.91
		c10.47-2.2,21.45-3.31,32.63-3.31c2.5,0,4.97,0.09,7.36,0.27l0.2,0.01l7.83-0.29c7.6,0.01,15.98,0.47,24.78,1.4
		c8.6,0.91,17.94,3.3,27.75,7.12c17.84,7.39,30.91,16.95,38.76,28.37c4.32,6.13,7.83,13.14,10.44,20.87
		c2.27,6.76,4.27,13.72,5.95,20.73l-44.34,6.09c-3.15-12.36-9.75-23.82-19.67-34.1c-5.44-5.23-12.35-8.85-20.65-10.88
		c-7.97-1.94-17.19-2.92-27.4-2.92c-24.2,0-41.08,3.94-51.61,12.04l-0.14,0.12c-9.83,8.4-14.81,17.77-14.81,27.85
		c0,1.23,0.18,3.88,1.75,12.63c1.35,7.55,9.27,14.9,24.21,22.47l0.17,0.08l0.18,0.07c15.52,5.87,32.97,11.05,51.88,15.4
		c20.29,4.66,39.91,10.55,58.3,17.51c17.91,6.79,32.2,16.79,42.48,29.74c7.78,11.19,11.73,25.3,11.73,41.95
		c-0.18,5.4-1.65,12.85-4.37,22.02c-2.72,9.18-6.22,17.42-10.39,24.49c-3.55,6.05-8.96,12.21-16.07,18.32
		c-7.12,6.13-15.6,11.26-25.17,15.23c-8.08,3.49-17.69,6.41-28.61,8.71c-10.9,2.29-22.2,3.45-33.59,3.45H1391.75z"/>
	<path d="M1667.2,76.61c-15.96,0-28.95-12.99-28.95-28.95c0-15.97,12.99-28.95,28.95-28.95c15.97,0,28.95,12.99,28.95,28.95
		C1696.15,63.62,1683.17,76.61,1667.2,76.61 M1643.92,137.12h46.57V445.3h-46.57V137.12z"/>
	<path d="M1928.26,445.02c-17.44-51.55-34.87-103.01-52.3-154.38c-17.7-52.35-35.31-104.26-52.36-154.36h50.9
		c25.73,81.85,51.46,163.61,77.19,245.28l3.41,10.82l3.38-10.82c13.02-41.7,26.23-83.71,39.26-124.86
		c12.31-39.27,25.06-79.77,37.92-120.41h50.91l-104.94,308.74H1928.26z"/>
	<path d="M2331.27,182.81c-49.35,0-92.49,33.32-104.9,81.03l-1.16,4.45h212.12l-1.16-4.45
		C2423.76,216.13,2380.62,182.81,2331.27,182.81 M2331.27,444.6c-84.58,0-153.4-68.82-153.4-153.4c0-84.59,68.81-153.4,153.4-153.4
		c84.59,0,153.4,68.82,153.4,153.4c0,7.89-0.61,15.82-1.81,23.61h-146.3v0.43h-111.08l1.23,4.5c12.81,47.02,55.8,79.85,104.57,79.85
		c33.25,0,64.03-14.87,84.74-40.86h53.03C2443.34,411.08,2389.86,444.6,2331.27,444.6"/>
</g>
</svg>
