<?xml version="1.0" encoding="utf-8"?>
<!-- Generator: Adobe Illustrator 25.4.1, SVG Export Plug-In . SVG Version: 6.00 Build 0)  -->
<svg version="1.1" id="Layer_1" xmlns="http://www.w3.org/2000/svg" xmlns:xlink="http://www.w3.org/1999/xlink" x="0px" y="0px"
	 viewBox="0 0 978.26 1574.35" style="enable-background:new 0 0 978.26 1574.35;" xml:space="preserve">
<style type="text/css">
	.st0{fill:#FFFFFF;}
</style>
<g>
	<path class="st0" d="M515.32,279.19c34.15,30.44,78.88,30.61,79.58,30.61c205.84,0,365.69,167.73,365.69,373.9
		c0,206.17-167.13,373.3-373.3,373.3c-0.7,0-1.39-0.05-2.09-0.05l0,0c-53.8,0-96.97,46.94-96.97,101.55c0,0,1.05,154.71,1.05,162.14
		c0,136.25-115.2,245.6-253.51,235.95c-115.47-8.05-218.76-100.4-218.76-216.15c0-86.43,33.58-150.01,88.16-204.59l229.27-233.51
		C368.9,867.24,414.35,847,465.09,847l122.2-0.8v0.17c86.66,0,162.67-72.83,162.67-162.67c0-85.03-65.81-165.94-164.75-165.94
		c-18.79,0-35.31,2.27-68.49-30.91L403.26,371.99c-44.51-44.51-86.89-40.63-87.35-40.63c-90.72,0-163.7-75.92-158.89-167.69
		c4.21-80.31,70.01-146.11,150.33-150.32c91.77-4.81,168.18,68.18,168.18,158.89c0,4.07,0,15.78,0,17.96
		C475.53,225.09,490.94,258.25,515.32,279.19z"/>
</g>
</svg>
