<?xml version="1.0" encoding="utf-8"?>
<!-- Generator: Adobe Illustrator 25.4.1, SVG Export Plug-In . SVG Version: 6.00 Build 0)  -->
<svg version="1.1" id="Layer_1" xmlns="http://www.w3.org/2000/svg" xmlns:xlink="http://www.w3.org/1999/xlink" x="0px" y="0px"
	 viewBox="0 0 1217.69 2000" style="enable-background:new 0 0 1217.69 2000;" xml:space="preserve">
<style type="text/css">
	.st0{fill:#FFFFFF;}
</style>
<g>
	<path class="st0" d="M633.04,279.19c34.15,30.44,78.88,30.61,79.58,30.61c205.84,0,365.69,167.73,365.69,373.9
		c0,206.17-167.13,373.3-373.3,373.3c-0.7,0-1.39-0.05-2.09-0.05l0,0c-53.8,0-96.97,46.94-96.97,101.55c0,0,1.05,154.71,1.05,162.14
		c0,136.25-115.2,245.6-253.51,235.95c-115.47-8.05-218.76-100.4-218.76-216.15c0-86.43,33.58-150.01,88.16-204.59l229.27-233.51
		c34.45-35.09,79.9-55.32,130.65-55.32l122.2-0.8v0.17c86.66,0,162.67-72.83,162.67-162.67c0-85.03-65.81-165.94-164.75-165.94
		c-18.79,0-35.31,2.27-68.49-30.91L520.98,371.99c-44.51-44.51-86.89-40.63-87.35-40.63c-90.72,0-163.7-75.92-158.89-167.69
		c4.21-80.31,70.01-146.11,150.33-150.32c91.77-4.81,168.18,68.18,168.18,158.89c0,4.07,0,15.78,0,17.96
		C593.25,225.09,608.66,258.25,633.04,279.19z"/>
</g>
<g>
	<path class="st0" d="M84.77,1808.71c-9.57,0-18.4,2.36-26.24,7.01c-7.82,4.64-14.15,10.96-18.79,18.79
		c-4.65,7.85-7.01,16.67-7.01,26.24c0,9.66,2.36,18.53,7.01,26.37c4.64,7.83,10.96,14.15,18.79,18.79
		c7.84,4.65,16.67,7.01,26.24,7.01c9.57,0,18.39-2.36,26.24-7.01c7.83-4.64,14.15-10.96,18.79-18.79
		c4.65-7.84,7.01-16.72,7.01-26.37c0-9.57-2.36-18.4-7.01-26.24c-4.64-7.83-10.96-14.15-18.79-18.79
		C103.16,1811.07,94.33,1808.71,84.77,1808.71 M10.2,1987.13v-126.52c0.18-13.73,3.64-26.34,10.28-37.47
		c6.66-11.14,15.73-20.18,26.95-26.89c11.21-6.69,23.77-10.08,37.33-10.08c13.56,0,26.15,3.39,37.4,10.08
		c11.27,6.7,20.38,15.82,27.09,27.09c6.69,11.25,10.08,23.84,10.08,37.4c0,13.65-3.39,26.26-10.08,37.47
		c-6.7,11.23-15.81,20.32-27.09,27.02c-11.25,6.69-23.83,10.08-37.4,10.08c-9.4,0-18.39-1.66-26.71-4.94
		c-8.34-3.28-15.89-7.91-22.46-13.77l-2.87-2.56v73.08H10.2z"/>
	<path class="st0" d="M297.64,1808.71c-9.57,0-18.4,2.36-26.24,7.01c-7.83,4.64-14.15,10.96-18.79,18.79
		c-4.65,7.84-7.01,16.67-7.01,26.24c0,9.66,2.36,18.53,7.01,26.37c4.64,7.83,10.96,14.15,18.79,18.79
		c7.84,4.65,16.67,7.01,26.24,7.01c9.57,0,18.39-2.36,26.24-7.01c7.83-4.64,14.15-10.96,18.79-18.79
		c4.65-7.84,7.01-16.72,7.01-26.37c0-9.57-2.36-18.4-7.01-26.24c-4.64-7.83-10.96-14.15-18.79-18.79
		C316.04,1811.07,307.21,1808.71,297.64,1808.71 M349.68,1935.31v-21.26l-2.87,2.56c-6.56,5.86-14.12,10.48-22.45,13.77
		c-8.32,3.28-17.31,4.94-26.71,4.94c-13.66,0-26.27-3.39-37.47-10.08c-11.23-6.7-20.32-15.79-27.02-27.02
		c-6.69-11.2-10.08-23.81-10.08-37.47c0-13.57,3.39-26.15,10.08-37.4c6.7-11.27,15.79-20.39,27.02-27.09
		c11.21-6.69,23.81-10.08,37.47-10.08c13.56,0,26.15,3.39,37.4,10.08c11.27,6.7,20.34,15.77,26.95,26.95
		c6.6,11.17,10.04,23.81,10.22,37.57v74.55H349.68z"/>
	<path class="st0" d="M495.75,1935.59c-5.71,0-12.6-0.73-20.47-2.16c-7.71-1.4-14.77-4.55-20.99-9.37
		c-9.07-7.39-15.14-18.28-18.03-32.35l21.72-3.42c0.65,3.26,1.76,6.65,3.32,10.09c1.86,4.09,4.57,7.94,8.08,11.44
		c3.15,2.96,7.1,5.07,11.78,6.32c4.54,1.22,9.77,1.84,15.55,1.84c11.58,0,20.32-2.44,26-7.24c5.76-4.88,8.68-10.66,8.68-17.17
		c0-6.06-2.65-10.87-7.89-14.29c-3.46-2.31-11.82-5.11-25.54-8.57l-0.08-0.02c-0.85-0.17-1.72-0.39-2.57-0.64l-0.09-0.02
		c-5.51-1.35-11.32-2.93-17.29-4.7c-5.92-1.75-11.79-3.87-17.45-6.29c-6.09-2.83-11.02-7.13-14.61-12.74
		c-3.59-5.62-5.55-12.16-5.82-19.45c0.18-6.09,1.64-12.02,4.34-17.64c2.69-5.6,6.65-10.37,11.78-14.2
		c5.03-3.55,10.65-5.99,16.68-7.21c5.07-1.06,10.38-1.6,15.79-1.6c1.21,0,2.4,0.04,3.56,0.13l0.1,0.01l3.79-0.14
		c3.68,0,7.73,0.23,11.99,0.68c4.16,0.44,8.68,1.6,13.43,3.45c8.63,3.58,14.96,8.2,18.76,13.73c2.09,2.97,3.79,6.36,5.05,10.1
		c1.1,3.27,2.07,6.64,2.88,10.03l-21.46,2.95c-1.52-5.98-4.72-11.53-9.52-16.5c-2.63-2.53-5.98-4.28-9.99-5.27
		c-3.86-0.94-8.32-1.42-13.26-1.42c-11.71,0-19.88,1.91-24.98,5.83l-0.07,0.06c-4.76,4.06-7.17,8.6-7.17,13.48
		c0,0.6,0.09,1.88,0.85,6.11c0.65,3.65,4.49,7.21,11.72,10.87l0.08,0.04l0.09,0.03c7.51,2.84,15.96,5.35,25.11,7.45
		c9.82,2.25,19.31,5.11,28.22,8.48c8.67,3.28,15.58,8.13,20.56,14.39c3.77,5.42,5.67,12.24,5.67,20.3
		c-0.09,2.62-0.8,6.22-2.12,10.65c-1.32,4.44-3.01,8.43-5.03,11.85c-1.72,2.93-4.34,5.91-7.77,8.87c-3.45,2.97-7.55,5.45-12.18,7.37
		c-3.91,1.69-8.56,3.1-13.85,4.21c-5.28,1.11-10.75,1.67-16.26,1.67H495.75z"/>
	<path class="st0" d="M677.59,1935.59c-5.71,0-12.6-0.73-20.47-2.16c-7.71-1.4-14.77-4.55-20.99-9.37
		c-9.07-7.39-15.14-18.28-18.03-32.35l21.72-3.42c0.65,3.26,1.76,6.65,3.32,10.09c1.86,4.09,4.57,7.94,8.08,11.44
		c3.15,2.96,7.1,5.07,11.78,6.32c4.54,1.22,9.77,1.84,15.55,1.84c11.58,0,20.32-2.44,26-7.24c5.76-4.88,8.68-10.66,8.68-17.17
		c0-6.06-2.65-10.87-7.89-14.29c-3.46-2.31-11.82-5.11-25.54-8.57l-0.08-0.02c-0.85-0.17-1.72-0.39-2.57-0.64l-0.09-0.02
		c-5.51-1.35-11.32-2.93-17.29-4.7c-5.92-1.75-11.79-3.87-17.45-6.29c-6.09-2.83-11.02-7.13-14.61-12.74
		c-3.59-5.62-5.55-12.16-5.82-19.45c0.18-6.09,1.64-12.02,4.34-17.64c2.69-5.6,6.65-10.37,11.78-14.2
		c5.03-3.55,10.65-5.99,16.68-7.21c5.07-1.06,10.38-1.6,15.79-1.6c1.21,0,2.4,0.04,3.56,0.13l0.1,0.01l3.79-0.14
		c3.68,0,7.73,0.23,11.99,0.68c4.16,0.44,8.68,1.6,13.43,3.45c8.64,3.58,14.96,8.2,18.76,13.73c2.09,2.97,3.79,6.36,5.05,10.1
		c1.1,3.27,2.07,6.64,2.88,10.03l-21.46,2.95c-1.52-5.98-4.72-11.53-9.52-16.5c-2.63-2.53-5.98-4.28-9.99-5.27
		c-3.86-0.94-8.32-1.42-13.26-1.42c-11.71,0-19.88,1.91-24.98,5.83l-0.07,0.06c-4.76,4.06-7.17,8.6-7.17,13.48
		c0,0.6,0.09,1.88,0.85,6.11c0.65,3.65,4.49,7.21,11.72,10.87l0.08,0.04l0.09,0.03c7.51,2.84,15.96,5.35,25.11,7.45
		c9.82,2.25,19.31,5.11,28.22,8.48c8.67,3.28,15.58,8.13,20.56,14.39c3.77,5.42,5.67,12.24,5.67,20.3
		c-0.09,2.62-0.8,6.22-2.12,10.65c-1.32,4.44-3.01,8.43-5.03,11.85c-1.72,2.93-4.34,5.91-7.78,8.87c-3.45,2.97-7.55,5.45-12.18,7.37
		c-3.91,1.69-8.56,3.1-13.85,4.21c-5.28,1.11-10.75,1.67-16.26,1.67H677.59z"/>
	<path class="st0" d="M810.9,1756.89c-7.72,0-14.01-6.28-14.01-14.01c0-7.73,6.28-14.01,14.01-14.01c7.73,0,14.01,6.28,14.01,14.01
		C824.91,1750.6,818.63,1756.89,810.9,1756.89 M799.63,1786.17h22.54v149.14h-22.54V1786.17z"/>
	<path class="st0" d="M937.24,1935.18c-8.44-24.95-16.87-49.85-25.31-74.71c-8.57-25.33-17.09-50.45-25.34-74.7h24.63
		c12.45,39.61,24.9,79.18,37.36,118.7l1.65,5.24l1.64-5.24c6.3-20.18,12.69-40.51,19-60.43c5.96-19.01,12.13-38.6,18.35-58.27h24.64
		l-50.79,149.41H937.24z"/>
	<path class="st0" d="M1132.27,1808.28c-23.88,0-44.76,16.13-50.77,39.21l-0.56,2.15h102.65l-0.56-2.15
		C1177.03,1824.41,1156.15,1808.28,1132.27,1808.28 M1132.27,1934.98c-40.93,0-74.23-33.3-74.23-74.23
		c0-40.93,33.3-74.24,74.23-74.24c40.93,0,74.23,33.3,74.23,74.24c0,3.82-0.29,7.65-0.88,11.43h-70.8v0.21h-53.76l0.59,2.18
		c6.2,22.75,27,38.64,50.6,38.64c16.09,0,30.99-7.2,41.01-19.77h25.66C1186.51,1918.75,1160.62,1934.98,1132.27,1934.98"/>
</g>
</svg>
